<?xml version="1.0" encoding="UTF-8" standalone="no"?>
<!-- Generator: Adobe Illustrator 17.1.0, SVG Export Plug-In . SVG Version: 6.00 Build 0)  -->

<svg
   xmlns:dc="http://purl.org/dc/elements/1.1/"
   xmlns:cc="http://creativecommons.org/ns#"
   xmlns:rdf="http://www.w3.org/1999/02/22-rdf-syntax-ns#"
   xmlns:svg="http://www.w3.org/2000/svg"
   xmlns="http://www.w3.org/2000/svg"
   xmlns:sodipodi="http://sodipodi.sourceforge.net/DTD/sodipodi-0.dtd"
   xmlns:inkscape="http://www.inkscape.org/namespaces/inkscape"
   version="1.1"
   id="Linkedin"
   x="0px"
   y="0px"
   viewBox="0 0 128 128"
   enable-background="new 0 0 128 128"
   xml:space="preserve"
   sodipodi:docname="icon-linkedin.svg"
   inkscape:version="0.92.2 2405546, 2018-03-11"><metadata
   id="metadata76"><rdf:RDF><cc:Work
       rdf:about=""><dc:format>image/svg+xml</dc:format><dc:type
         rdf:resource="http://purl.org/dc/dcmitype/StillImage" /></cc:Work></rdf:RDF></metadata><defs
   id="defs74" /><sodipodi:namedview
   pagecolor="#ffffff"
   bordercolor="#666666"
   borderopacity="1"
   objecttolerance="10"
   gridtolerance="10"
   guidetolerance="10"
   inkscape:pageopacity="0"
   inkscape:pageshadow="2"
   inkscape:window-width="1366"
   inkscape:window-height="746"
   id="namedview72"
   showgrid="false"
   inkscape:zoom="4.2734375"
   inkscape:cx="64"
   inkscape:cy="64"
   inkscape:window-x="0"
   inkscape:window-y="22"
   inkscape:window-maximized="0"
   inkscape:current-layer="g69" />
<g
   id="g69">
	<circle
   id="linkedin-back"
   fill="#0076B2"
   cx="64"
   cy="64"
   r="64" />
	<g
   id="linkedin-linkedin">
		<path
   fill="#FFFFFF"
   d="M29.0752,51.7471h14.8686V99.54H29.0752V51.7471z M36.5137,27.9893c4.7514,0,8.6084,3.8593,8.6084,8.6137    c0,4.7554-3.857,8.6143-8.6084,8.6143c-4.7705,0-8.6172-3.8589-8.6172-8.6143C27.8965,31.8486,31.7432,27.9893,36.5137,27.9893"
   id="path64" />
		<path
   fill="#FFFFFF"
   d="M53.2622,51.7471H67.5v6.5337h0.2041c1.9805-3.7574,6.8272-7.7198,14.0537-7.7198    c15.0391,0,17.8184,9.896,17.8184,22.7671V99.54H84.7246V76.2979c0-5.542-0.0957-12.6719-7.7187-12.6719    c-7.7286,0-8.9082,6.04-8.9082,12.2754V99.54H53.2622V51.7471z"
   id="path66" />
	</g>
<path
   style="fill:#bf5bbd;stroke-width:0.23400366;fill-opacity:1"
   d="M 59.509753,127.72923 C 53.792176,127.3186 47.354321,125.9478 42.003656,124.00172 37.917662,122.5156 32.504428,119.74473 28.695527,117.18968 19.274444,110.86994 12.054844,102.76553 7.0363594,92.876051 2.6535235,84.239184 0.49276909,75.711544 0.18808477,65.848629 -0.28460148,50.547333 4.6036197,36.000356 14.302574,23.844973 16.419677,21.191676 21.234537,16.395195 23.99294,14.191597 32.953073,7.0336344 43.707313,2.4030856 55.458867,0.64303016 c 2.861275,-0.42853923 14.220991,-0.42853923 17.082266,0 9.826558,1.47174474 18.743401,4.82710294 26.606839,10.01200584 7.195378,4.744404 13.634368,11.2488 18.501108,18.689023 11.09067,16.955331 13.31639,38.977228 5.85345,57.915904 -3.40789,8.6482 -8.60287,16.396327 -15.29949,22.818617 -4.70767,4.51482 -10.168018,8.34846 -15.916601,11.17485 -7.80054,3.83526 -15.28485,5.84075 -24.194242,6.48308 -3.607175,0.26006 -4.875014,0.25899 -8.582444,-0.007 z M 44.109689,75.676782 V 51.691408 H 36.50457 28.899452 v 23.985374 23.985375 h 7.605118 7.605119 z M 68.22023,86.38245 c 0.0088,-14.406342 0.09731,-15.676406 1.270582,-18.244011 1.149051,-2.514592 3.077712,-3.900303 5.923358,-4.255832 3.149277,-0.393465 5.845972,0.430258 7.112552,2.172579 1.962421,2.699518 2.047736,3.523014 2.057435,19.859256 l 0.0082,13.747715 h 7.488117 7.488117 l -7.02e-4,-15.502742 c -7.02e-4,-15.960402 -0.09681,-18.099383 -0.96958,-21.573838 -1.596053,-6.353803 -4.722335,-9.712341 -10.612941,-11.401391 -1.608303,-0.46116 -2.415966,-0.537415 -5.73309,-0.541288 -4.383001,-0.0051 -6.050375,0.35636 -8.892139,1.927757 -1.750792,0.96813 -4.210795,3.210648 -5.182308,4.724153 l -0.667741,1.040329 v -3.321865 -3.321864 h -7.137112 -7.137111 v 23.985374 23.985375 h 7.488117 7.488117 l 0.0082,-13.279707 z M 39.796066,44.6461 c 1.019788,-0.381053 1.766908,-0.897186 2.813077,-1.943355 1.858565,-1.858565 2.516274,-3.454194 2.516274,-6.104573 0,-2.650379 -0.657709,-4.246008 -2.516274,-6.104573 -2.257073,-2.257073 -5.149002,-3.092302 -8.094315,-2.337748 -5.574744,1.428183 -8.333649,7.466977 -5.69841,12.472896 2.101364,3.991768 6.621737,5.645729 10.979648,4.017353 z"
   id="path3781"
   inkscape:connector-curvature="0" /><path
   style="fill:#800080;fill-opacity:1;stroke-width:0.23400366"
   d="m 58.009506,127.53842 c -4.917575,-0.5448 -10.2439,-1.72313 -14.976234,-3.31315 -3.700115,-1.24321 -10.277337,-4.50403 -13.923217,-6.90279 C 13.427704,107.00451 3.3428714,90.992628 0.7598138,72.310268 0.20096199,68.268288 0.20258661,59.470981 0.76289982,55.599269 2.8435825,41.221946 8.8627825,29.050063 18.811964,19.100883 22.358921,15.553926 25.200727,13.205808 28.833685,10.82017 36.141853,6.0211476 43.87687,2.9443283 53.446435,1.0297602 55.240796,0.67076512 56.799153,0.60840951 63.9766,0.60840951 c 8.265919,0 8.483959,0.0121038 11.609658,0.64447379 C 92.09764,4.593353 105.71327,13.16259 115.4683,26.353351 c 10.27761,13.897396 14.40803,32.089713 11.21345,49.389336 -2.56913,13.912667 -10.11782,27.096093 -20.77119,36.275853 -9.6697,8.33218 -20.962263,13.46908 -33.392827,15.19017 -3.215617,0.44522 -11.720871,0.63851 -14.508227,0.32971 z M 44.145887,75.665082 44.086289,51.621207 H 36.48117 28.876051 l -0.0596,24.043875 -0.0596,24.043876 h 7.724318 7.724318 z m 24.229062,10.062157 c 0.07125,-9.052829 0.202137,-14.386675 0.371275,-15.130456 0.650874,-2.862216 2.082913,-4.882311 4.197021,-5.920491 1.212348,-0.595352 1.556361,-0.65258 3.903556,-0.64937 2.344033,0.0032 2.682519,0.0604 3.788049,0.640098 2.173989,1.139954 3.23751,3.115977 3.581709,6.654819 0.122807,1.262641 0.226003,8.166278 0.229323,15.341415 l 0.006,13.045704 H 92.057 99.662119 l -0.0048,-13.981719 c -0.0068,-19.770224 -0.24558,-22.429578 -2.431872,-27.085923 -1.721604,-3.666659 -4.119348,-5.7566 -8.266352,-7.205181 -1.847754,-0.645435 -2.396803,-0.726288 -5.56141,-0.818954 -4.633359,-0.135675 -6.441173,0.154225 -9.124942,1.463272 -2.265034,1.104799 -5.014371,3.385677 -6.008688,4.984863 l -0.543415,0.873989 -0.117002,-3.159049 -0.117002,-3.159049 h -7.137111 -7.137112 l -0.0596,24.043875 -0.0596,24.043876 h 7.585835 7.585832 z M 39.508953,44.781879 c 2.143071,-0.748182 4.44839,-3.0271 5.211114,-5.151429 0.585589,-1.630975 0.551273,-4.604057 -0.07238,-6.270917 -0.612561,-1.637218 -2.613694,-3.752176 -4.425004,-4.676701 -3.381613,-1.726032 -8.076363,-0.61012 -10.538711,2.504983 -1.41305,1.787643 -1.923823,3.429104 -1.81321,5.82708 0.11052,2.395933 0.810336,4.056456 2.39806,5.690103 2.39799,2.467349 5.879939,3.249979 9.240131,2.076881 z"
   id="path237"
   inkscape:connector-curvature="0" /><path
   style="fill:#e3dbdb;fill-opacity:1;stroke-width:0.23400366"
   d="M 53.469835,75.6733 V 51.918447 l 6.961609,0.06198 6.961609,0.06198 0.117002,3.272323 0.117002,3.272322 0.787431,-1.228727 c 1.109248,-1.730896 3.473887,-3.813069 5.469594,-4.816229 2.534228,-1.273852 4.873906,-1.786709 8.151045,-1.786709 9.620607,0 14.919753,4.237089 16.721342,13.370045 0.497949,2.524288 0.779776,11.333688 0.798128,24.948054 l 0.01396,10.354662 h -7.357981 -7.35798 L 84.764651,85.09543 c -0.07269,-11.846751 -0.149235,-14.559315 -0.441326,-15.639117 -1.182537,-4.371637 -3.370486,-5.977851 -7.885219,-5.788691 -4.395493,0.184165 -6.621376,1.995734 -7.922245,6.447642 -0.345508,1.182416 -0.405041,3.080122 -0.480955,15.331171 l -0.08664,13.981719 h -7.239217 -7.239217 z"
   id="path70"
   inkscape:connector-curvature="0" /><path
   style="fill:#e3dbdb;fill-opacity:1;stroke-width:0.23400366"
   d="M 29.133455,75.676782 V 51.925411 h 7.371115 7.371116 V 75.676782 99.428154 H 36.50457 29.133455 Z"
   id="path72"
   inkscape:connector-curvature="0" /><path
   style="fill:#e3dbdb;fill-opacity:1;stroke-width:0.23400366"
   d="m 33.93053,44.657552 c -2.866396,-0.929863 -4.911936,-3.160069 -5.653092,-6.163441 -0.695558,-2.818599 0.148292,-5.7713 2.250032,-7.87304 2.101739,-2.101739 5.054441,-2.94559 7.87304,-2.250031 3.043277,0.751004 5.250191,2.80074 6.176109,5.736241 0.592139,1.877301 0.592139,3.104481 0,4.981781 -0.873259,2.768556 -2.869181,4.745687 -5.671147,5.617757 -1.750697,0.544878 -3.187284,0.530652 -4.974942,-0.04927 z"
   id="path76"
   inkscape:connector-curvature="0" /></g>
</svg>