<?xml version="1.0" encoding="UTF-8" standalone="no"?>
<!-- Generator: Adobe Illustrator 17.1.0, SVG Export Plug-In . SVG Version: 6.00 Build 0)  -->

<svg
   xmlns:dc="http://purl.org/dc/elements/1.1/"
   xmlns:cc="http://creativecommons.org/ns#"
   xmlns:rdf="http://www.w3.org/1999/02/22-rdf-syntax-ns#"
   xmlns:svg="http://www.w3.org/2000/svg"
   xmlns="http://www.w3.org/2000/svg"
   xmlns:sodipodi="http://sodipodi.sourceforge.net/DTD/sodipodi-0.dtd"
   xmlns:inkscape="http://www.inkscape.org/namespaces/inkscape"
   version="1.1"
   id="Instagram"
   x="0px"
   y="0px"
   viewBox="0 0 128 128"
   enable-background="new 0 0 128 128"
   xml:space="preserve"
   sodipodi:docname="icon-instagram.svg"
   inkscape:version="0.92.2 2405546, 2018-03-11"><metadata
   id="metadata109"><rdf:RDF><cc:Work
       rdf:about=""><dc:format>image/svg+xml</dc:format><dc:type
         rdf:resource="http://purl.org/dc/dcmitype/StillImage" /></cc:Work></rdf:RDF></metadata><defs
   id="defs107" /><sodipodi:namedview
   pagecolor="#ffffff"
   bordercolor="#666666"
   borderopacity="1"
   objecttolerance="10"
   gridtolerance="10"
   guidetolerance="10"
   inkscape:pageopacity="0"
   inkscape:pageshadow="2"
   inkscape:window-width="664"
   inkscape:window-height="722"
   id="namedview105"
   showgrid="false"
   inkscape:zoom="4.2734375"
   inkscape:cx="64"
   inkscape:cy="64"
   inkscape:window-x="688"
   inkscape:window-y="32"
   inkscape:window-maximized="0"
   inkscape:current-layer="Instagram" />
<g
   id="g102"
   style="fill:#e3dbdb">
	<circle
   id="instagram-back"
   fill="#517EA3"
   cx="64"
   cy="64"
   r="64"
   style="fill:#e3dbdb" />
	<path
   id="instagram-instagram"
   fill-rule="evenodd"
   clip-rule="evenodd"
   fill="#FFFFFF"
   d="M91.5713,58.4829h-6.2402   c0.4541,1.7651,0.7236,3.6089,0.7236,5.5156c0,12.1831-9.875,22.0562-22.0552,22.0562c-12.1797,0-22.0542-9.8731-22.0542-22.0562   c0-1.9067,0.2695-3.7505,0.7246-5.5156h-6.2407v30.3286c0,1.5205,1.2349,2.7549,2.7598,2.7549h49.6215   c1.5254,0,2.7608-1.2344,2.7608-2.7549V58.4829z M91.5713,39.186c0-1.5219-1.2354-2.7568-2.7608-2.7568H80.542   c-1.5225,0-2.7568,1.2349-2.7568,2.7568v8.272c0,1.522,1.2343,2.7568,2.7568,2.7568h8.2685c1.5254,0,2.7608-1.2348,2.7608-2.7568   V39.186z M63.9995,50.2148c-7.6133,0-13.7847,6.1705-13.7847,13.7837c0,7.6128,6.1714,13.7867,13.7847,13.7867   c7.6138,0,13.7857-6.1739,13.7857-13.7867C77.7852,56.3853,71.6133,50.2148,63.9995,50.2148 M91.5713,99.8398H36.4292   c-4.5664,0-8.269-3.7041-8.269-8.2734V36.4292c0-4.5669,3.7026-8.269,8.269-8.269h55.1421c4.5674,0,8.2685,3.7021,8.2685,8.269   v55.1372C99.8398,96.1357,96.1387,99.8398,91.5713,99.8398"
   style="fill:#e3dbdb" />
</g>
<path
   style="fill:#800080;fill-opacity:1;stroke-width:0.23400366"
   d="M 60.723949,127.82146 C 48.409553,126.96342 38.164471,123.54926 28.548446,117.099 13.221546,106.81799 3.3844218,91.130255 0.66676197,72.634735 0.14740857,69.100182 0.08021657,59.494196 0.55136683,56.137477 2.251373,44.025747 6.5143073,33.887167 13.932506,24.31298 16.167963,21.427822 21.107507,16.481561 24.219378,14.012121 33.238254,6.8551504 43.60587,2.418279 55.458867,0.64303016 c 2.861275,-0.42853923 14.220991,-0.42853923 17.082266,0 C 84.442496,2.4255228 94.66159,6.8087899 103.8627,14.077765 c 2.81572,2.224444 7.61064,6.981031 9.84593,9.767208 9.64182,12.018062 14.57566,26.712458 14.10328,42.003656 -0.30468,9.862915 -2.46543,18.390555 -6.84827,27.027422 -7.44327,14.667789 -20.48273,26.094669 -35.901502,31.461599 -7.549033,2.62764 -17.068835,3.99033 -24.338189,3.48381 z m 34.47735,-28.733728 c 1.723376,-0.872424 3.464305,-2.755416 4.175233,-4.515936 l 0.543029,-1.344739 V 63.9766 34.726143 L 99.380475,33.39194 C 98.624817,31.521739 97.06756,29.875551 95.170656,28.941706 L 93.611302,28.17404 H 64 34.388698 l -1.559354,0.767666 c -1.896904,0.933845 -3.454161,2.580033 -4.209819,4.450234 l -0.539086,1.334203 V 63.9766 93.227057 l 0.534312,1.321439 c 0.602283,1.489551 2.046203,3.252272 3.3257,4.059983 2.123934,1.34078 0.332589,1.273359 32.410554,1.219856 l 29.484461,-0.04918 z"
   id="path111"
   inkscape:connector-curvature="0" /><path
   style="fill:#800080;fill-opacity:1;stroke-width:0.23400366"
   d="M 38.116415,91.244295 C 37.844612,91.13359 37.39708,90.756788 37.1219,90.406952 36.622129,89.771597 36.621572,89.753474 36.621572,74.124201 V 58.477514 h 2.954296 2.954297 l -0.157057,0.760512 c -0.512097,2.479711 -0.633888,4.784699 -0.37189,7.038326 C 43.333154,77.733257 52.611479,86.089945 64,86.089945 c 14.178275,0 24.578871,-12.979574 21.610331,-26.968921 l -0.136553,-0.64351 h 2.952324 2.952326 v 15.674553 15.674554 l -0.682783,0.764202 -0.682781,0.764204 -25.701131,0.04527 c -14.135621,0.0249 -25.923514,-0.0453 -26.195318,-0.156005 z"
   id="path113"
   inkscape:connector-curvature="0" /><path
   style="fill:#800080;fill-opacity:1;stroke-width:0.23400366"
   d="m 60.571136,77.215899 c -2.049293,-0.555148 -3.066207,-1.062294 -4.911485,-2.449414 -2.370348,-1.781823 -4.107704,-4.417711 -4.886383,-7.41354 -0.539759,-2.076624 -0.386975,-5.88579 0.313116,-7.806539 1.523371,-4.179476 4.707202,-7.199382 9.169557,-8.697448 1.588731,-0.533355 5.421188,-0.596838 7.137112,-0.118222 4.342532,1.211246 8.325815,4.944873 9.632948,9.029193 0.572111,1.787641 0.677401,5.759117 0.20125,7.591012 -1.161597,4.469014 -4.705735,8.275877 -8.96699,9.631704 -2.263261,0.720113 -5.526497,0.819106 -7.689125,0.233254 z"
   id="path115"
   inkscape:connector-curvature="0" /><path
   style="fill:#800080;fill-opacity:1;stroke-width:0.23400366"
   d="m 79.065306,49.606531 c -1.097646,-0.66932 -1.25909,-1.472597 -1.25909,-6.264688 0,-4.845857 0.1731,-5.609113 1.448441,-6.386667 0.707909,-0.4316 1.173465,-0.472332 5.407786,-0.473131 6.963797,-0.0013 6.715985,-0.254467 6.715985,6.860699 v 5.119413 l -0.795613,0.795613 -0.795612,0.795612 -4.995978,-8.75e-4 c -4.497512,-7.87e-4 -5.068807,-0.04528 -5.725919,-0.445976 z"
   id="path117"
   inkscape:connector-curvature="0" /><path
   style="fill:#e3dbdb;fill-opacity:1;stroke-width:0.23400366"
   d="m 34.573689,99.477603 c -0.72736,-0.0935 -1.686287,-0.394841 -2.130949,-0.669657 -1.179245,-0.728814 -2.852406,-2.603497 -3.547001,-3.974213 L 28.291042,93.640422 V 63.960123 34.279825 l 0.632848,-1.269961 c 0.825126,-1.655812 2.260227,-3.067937 4.021314,-3.956931 l 1.416587,-0.71509 h 29.797404 29.797406 l 1.390255,0.834132 c 1.949826,1.169865 2.814189,2.078687 3.74334,3.935882 l 0.805965,1.610965 V 63.931165 93.14351 l -0.572457,1.294429 c -0.694465,1.570305 -2.635944,3.681743 -4.224618,4.594447 l -1.170018,0.67218 -29.016454,-0.02849 C 48.953565,99.660414 35.301048,99.571097 34.573689,99.477603 Z m 56.126687,-8.706688 0.771653,-0.747914 V 74.156655 58.290311 h -3.067416 -3.067415 l 0.140722,0.560677 c 0.438306,1.746346 0.63628,5.37396 0.399395,7.318359 -0.664591,5.45511 -2.708292,9.726337 -6.401822,13.379464 -3.190371,3.155471 -6.689795,5.055391 -10.935822,5.937309 -2.840124,0.589907 -7.645852,0.483089 -10.179159,-0.226256 C 52.191586,83.532519 47.196705,79.483589 44.432515,73.969604 42.085648,69.288094 41.522094,65.084853 42.463636,59.284826 L 42.62508,58.290311 H 39.553125 36.48117 l 0.01708,14.800731 c 0.0094,8.140402 0.09636,15.357793 0.193257,16.038648 0.21756,1.52872 0.640068,1.97223 2.068497,2.171315 0.612819,0.08541 12.376479,0.169363 26.141467,0.18656 l 25.027253,0.03126 z M 67.018647,77.359053 c 4.348216,-0.916973 8.198622,-4.303797 9.834792,-8.650698 1.191533,-3.165611 0.993992,-7.491183 -0.485253,-10.625598 -1.517436,-3.215339 -5.459359,-6.49637 -8.873238,-7.385573 -1.7757,-0.462511 -5.013618,-0.465995 -6.774708,-0.0073 -3.260815,0.849336 -6.745294,3.396817 -8.414942,6.152119 -3.781797,6.240828 -1.963567,14.43584 4.119402,18.566704 1.657326,1.125469 2.644008,1.554711 4.505392,1.960008 1.89304,0.41219 4.10478,0.408676 6.088555,-0.0097 z m 23.681729,-28.006785 0.771653,-0.747915 -0.01321,-4.809672 c -0.01444,-5.259675 -0.165104,-6.102317 -1.232572,-6.893787 -0.619342,-0.45921 -0.956768,-0.489925 -5.382084,-0.489925 -4.337749,0 -4.787851,0.03898 -5.540327,0.479814 -1.413209,0.82792 -1.521024,1.294444 -1.521024,6.581637 0,4.427684 0.03052,4.762516 0.490566,5.382084 0.86944,1.170921 1.230496,1.238515 6.635405,1.242229 l 5.01994,0.0035 z"
   id="path138"
   inkscape:connector-curvature="0" /></svg>